HIERARCHY
ROOT SpineBase
{
  OFFSET 0.000000 0.000000 0.000000
  CHANNELS 6 Xposition Yposition Zposition Zrotation Xrotation Yrotation
  JOINT SpineMid
  {
    OFFSET 0.000000 33.497569 0.000000
    CHANNELS 3 Zrotation Xrotation Yrotation
    JOINT SpineShoulder
    {
      OFFSET -0.125341 24.696630 -0.620895
      CHANNELS 3 Zrotation Xrotation Yrotation
      JOINT Neck
      {
        OFFSET -0.028355 8.118762 -0.587308
        CHANNELS 3 Zrotation Xrotation Yrotation
        JOINT Head
        {
          OFFSET -0.922609 10.954590 10.269423
          CHANNELS 3 Zrotation Xrotation Yrotation
          End Site
          {
            OFFSET 0 0 0
          }
        }
      }
      JOINT ShoulderLeft
      {
        OFFSET -13.359591 -8.935029 6.891770
        CHANNELS 3 Zrotation Xrotation Yrotation
        JOINT ElbowLeft
        {
          OFFSET 15.847651 -18.919876 -17.951904
          CHANNELS 3 Zrotation Xrotation Yrotation
          JOINT WristLeft
          {
            OFFSET 13.011698 -19.245806 -8.365124
            CHANNELS 3 Zrotation Xrotation Yrotation
            JOINT HandLeft
            {
              OFFSET 4.206013 -7.037935 -3.694938
              CHANNELS 3 Zrotation Xrotation Yrotation
              JOINT HandTipLeft
              {
                OFFSET 6.857989 -6.901880 0.173809
                CHANNELS 3 Zrotation Xrotation Yrotation
                End Site
                {
                  OFFSET 0 0 0
                }
              }
              JOINT ThumbLeft
              {
                OFFSET -5.213262 -4.945051 4.553566
                CHANNELS 3 Zrotation Xrotation Yrotation
                End Site
                {
                  OFFSET 0 0 0
                }
              }
            }
          }
        }
      }
      JOINT ShoulderRight
      {
        OFFSET 5.208974 -5.020651 -15.923166
        CHANNELS 3 Zrotation Xrotation Yrotation
        JOINT ElbowRight
        {
          OFFSET -1.341154 -28.736578 -7.753022
          CHANNELS 3 Zrotation Xrotation Yrotation
          JOINT WristRight
          {
            OFFSET 0.127501 -23.184900 -2.153673
            CHANNELS 3 Zrotation Xrotation Yrotation
            JOINT HandRight
            {
              OFFSET 2.918979 -6.822237 9.490601
              CHANNELS 3 Zrotation Xrotation Yrotation
              JOINT HandTipRight
              {
                OFFSET -0.324533 -3.766480 -0.449508
                CHANNELS 3 Zrotation Xrotation Yrotation
                End Site
                {
                  OFFSET 0 0 0
                }
              }
              JOINT ThumbRight
              {
                OFFSET -4.092527 -1.782068 -1.138766
                CHANNELS 3 Zrotation Xrotation Yrotation
                End Site
                {
                  OFFSET 0 0 0
                }
              }
            }
          }
        }
      }
    }
  }
  JOINT HipLeft
  {
    OFFSET -3.565768 1.028455 -8.685859
    CHANNELS 3 Zrotation Xrotation Yrotation
    JOINT KneeLeft
    {
      OFFSET 17.507664 -36.973964 -5.032322
      CHANNELS 3 Zrotation Xrotation Yrotation
      JOINT AnkleLeft
      {
        OFFSET 1.348639 -39.634043 -1.382145
        CHANNELS 3 Zrotation Xrotation Yrotation
        JOINT FootLeft
        {
          OFFSET 5.219979 -7.082225 -2.439943
          CHANNELS 3 Zrotation Xrotation Yrotation
          End Site
          {
            OFFSET 0 0 0
          }
        }
      }
    }
  }
  JOINT HipRight
  {
    OFFSET 4.393833 0.861288 1.178833
    CHANNELS 3 Zrotation Xrotation Yrotation
    JOINT KneeRight
    {
      OFFSET -2.982512 -39.991943 1.015716
      CHANNELS 3 Zrotation Xrotation Yrotation
      JOINT AnkleRight
      {
        OFFSET 3.863674 -39.644339 1.322857
        CHANNELS 3 Zrotation Xrotation Yrotation
        JOINT FootRight
        {
          OFFSET -7.380159 -4.349230 -10.191897
          CHANNELS 3 Zrotation Xrotation Yrotation
          End Site
          {
            OFFSET 0 0 0
          }
        }
      }
    }
  }
}
MOTION
Frames: 14
Frame Time: 0.033333
-38.745185 83.309256 307.289734 7.898779 3.050659 -26.045222 -1.502995 -1.848497 25.976910 1.511598 0.549400 0.372002 -11.241797 -1.169495 2.993126 0.000000 0.000000 0.000000 3.416947 -0.603150 -8.108819 -3.384687 -9.173905 1.118474 2.836483 2.934289 -0.407311 -14.245675 -2.303925 2.461851 0.000000 0.000000 0.000000 0.000000 0.000000 0.000000 21.693452 -9.162414 -5.486788 -19.848749 -1.913646 7.616969 -24.575313 26.871742 -8.879159 27.186095 -26.355822 21.072986 0.000000 0.000000 0.000000 0.000000 0.000000 0.000000 -6.696973 -8.557124 24.816619 1.845586 0.923856 0.530027 -42.732821 17.794709 43.988146 0.000000 0.000000 0.000000 -4.910374 -14.492591 26.194630 -3.238642 3.896215 -0.678936 7.766425 5.351438 -5.997287 0.000000 0.000000 0.000000
-38.469176 83.514030 307.256534 8.715108 3.777056 -30.657515 -1.898038 -1.716461 30.470561 1.595801 0.708123 0.404312 -8.216963 -3.240224 -0.458217 0.000000 0.000000 0.000000 4.244773 -3.015870 -9.817746 -3.287963 -11.036085 1.139578 3.641251 4.249586 -0.412717 -15.654736 -3.300944 2.599810 0.000000 0.000000 0.000000 0.000000 0.000000 0.000000 23.788685 -12.328137 -4.731818 -15.862533 -3.305338 8.085440 -34.011613 34.921935 -4.605285 32.161521 -34.331309 24.619557 0.000000 0.000000 0.000000 0.000000 0.000000 0.000000 -6.250883 -10.722037 29.053274 1.928840 1.403730 0.771773 -27.618855 15.956272 28.416421 0.000000 0.000000 0.000000 -5.183073 -16.894333 30.590288 -2.285734 5.818727 -0.460104 7.142196 6.193701 -7.011522 0.000000 0.000000 0.000000
-38.513291 83.370800 307.655970 8.448937 3.959338 -28.848496 -1.856797 -1.182572 28.648273 1.512579 0.363928 0.426869 -1.421602 -1.062053 -6.087141 0.000000 0.000000 0.000000 3.674336 -7.822067 -12.859254 -0.784462 -6.158353 3.550818 4.018663 4.085195 -1.062031 -18.076764 -6.587656 1.163193 0.000000 0.000000 0.000000 0.000000 0.000000 0.000000 26.303195 -13.934977 -4.461591 -12.329845 -4.441467 8.561098 -41.339974 41.708608 4.433257 40.912274 -43.572087 27.499856 0.000000 0.000000 0.000000 0.000000 0.000000 0.000000 -6.190724 -9.900984 27.463611 1.673751 1.823061 0.603378 -12.893698 8.280127 12.178951 0.000000 0.000000 0.000000 -4.789687 -15.389220 28.805836 -6.464981 4.901757 -0.199106 12.231439 4.085608 -8.890438 0.000000 0.000000 0.000000
-38.853129 82.807900 308.392987 8.500643 4.241209 -22.057874 -2.055246 -0.819726 21.825210 1.639658 0.246071 0.454878 3.396066 -1.388960 -10.340116 0.000000 0.000000 0.000000 5.144199 -8.437753 -14.191023 -0.451438 -7.314243 3.788492 2.817967 4.332963 -0.374079 -16.012098 -8.706026 -0.897528 0.000000 0.000000 0.000000 0.000000 0.000000 0.000000 27.363357 -15.736269 -3.888550 -7.362150 -5.576499 8.658002 -48.171838 44.348364 11.328861 46.120433 -47.392679 29.268168 0.000000 0.000000 0.000000 0.000000 0.000000 0.000000 -6.336916 -7.082725 21.349957 -0.000000 0.000000 0.000000 -2.942748 0.154483 1.153135 0.000000 0.000000 0.000000 -6.377235 -14.980655 21.814881 -8.119845 5.433872 0.014951 15.514238 1.769026 -10.648350 0.000000 0.000000 0.000000
-39.564041 81.953404 309.446785 8.659029 4.198522 -10.435466 -1.626308 -0.685955 10.267604 1.339440 0.357098 0.439840 4.138980 -1.285716 -11.363969 0.000000 0.000000 0.000000 8.958597 -8.243556 -17.132869 -3.540640 -9.113163 6.721540 -2.047057 4.422077 3.025501 -11.487807 -10.428130 -6.134443 0.000000 0.000000 0.000000 0.000000 0.000000 0.000000 27.291980 -16.492933 -3.746614 -1.692849 -7.248005 8.644126 -53.955870 44.305044 15.613621 51.117579 -51.330884 32.656307 0.000000 0.000000 0.000000 0.000000 0.000000 0.000000 -7.085094 -3.880517 10.420796 -1.008588 -0.498737 -0.605660 1.623682 -7.013377 -4.864987 0.000000 0.000000 0.000000 -9.653869 -14.053442 9.925922 -8.374843 6.852563 0.267906 17.568798 -0.556374 -12.219052 0.000000 0.000000 0.000000
-40.447069 80.932121 310.636863 9.084580 3.931098 4.734373 -0.874239 -0.497079 -4.808860 1.035331 0.224652 0.473958 4.198062 -2.040985 -12.566978 0.000000 0.000000 0.000000 8.190952 -10.251838 -19.488183 -0.560276 -5.202495 7.752262 -5.578527 2.736438 4.132279 -12.054507 -12.534358 -8.117140 0.000000 0.000000 0.000000 0.000000 0.000000 0.000000 25.439407 -16.379126 -3.952359 2.545968 -10.349405 9.105440 -52.261165 39.559195 15.457739 46.423047 -48.664529 27.224299 0.000000 0.000000 0.000000 0.000000 0.000000 0.000000 -6.237500 0.142840 -3.952245 -2.552830 -0.595989 -1.256836 2.549273 -10.525339 -6.404617 0.000000 0.000000 0.000000 -14.741135 -11.923381 -5.427637 -8.877668 7.538049 0.405111 20.519027 -0.747409 -14.556913 0.000000 0.000000 0.000000
-41.462879 79.856889 311.844727 9.855116 3.647017 18.278187 -0.390043 -0.443364 -18.296393 -0.202008 -0.018616 0.432403 4.178773 -2.944000 -12.849175 0.000000 0.000000 0.000000 4.148900 -14.492561 -21.066581 5.915143 2.670988 6.208818 -2.460170 -3.268837 -0.762776 -18.563745 -10.281176 -0.543818 0.000000 0.000000 0.000000 0.000000 0.000000 0.000000 24.789195 -17.013261 -3.779851 3.138533 -11.730633 9.342983 -45.272765 31.602492 12.170832 38.733638 -43.233446 19.900719 0.000000 0.000000 0.000000 0.000000 0.000000 0.000000 -7.208411 2.838946 -17.081058 3.759458 3.863445 -1.612209 -10.378869 -16.102190 -6.218739 0.000000 0.000000 0.000000 -22.774729 -8.388421 -18.927877 0.277169 11.964591 0.002184 16.925803 -3.029469 -17.007635 0.000000 0.000000 0.000000
-42.577619 78.858077 312.999887 10.709549 3.399120 27.583973 -0.703312 -0.383709 -27.583100 -1.053300 -0.283842 0.402207 7.450207 -2.861243 -15.637308 0.000000 0.000000 0.000000 -4.083375 -20.325983 -22.207489 18.094684 15.100563 -0.336588 -1.693194 -7.740585 -3.050321 -21.458070 -12.168004 3.418895 0.000000 0.000000 0.000000 0.000000 0.000000 0.000000 24.988040 -17.337364 -3.766510 -1.226123 -12.493209 9.926563 -35.863438 30.073973 11.857102 30.840184 -44.860797 14.736241 0.000000 0.000000 0.000000 0.000000 0.000000 0.000000 -9.922243 5.171449 -26.128661 10.706189 7.964308 -2.010239 -13.227067 -18.795266 -6.492705 0.000000 0.000000 0.000000 -25.906647 -3.904443 -27.327435 6.468068 14.771718 -0.649370 12.870467 -4.667864 -19.776657 0.000000 0.000000 0.000000
-43.542263 78.177786 313.978198 11.345641 2.964160 32.256810 -0.712675 -0.256785 -32.219111 -1.497229 -0.381697 0.402160 13.508101 0.913048 -21.038675 0.000000 0.000000 0.000000 -17.397294 -26.720461 -22.472076 38.594667 25.967121 -15.648451 -2.015135 -10.726066 -3.789144 -23.193581 -17.209718 4.271860 0.000000 0.000000 0.000000 0.000000 0.000000 0.000000 24.842958 -18.493350 -3.454153 -5.596710 -13.229806 10.528576 -27.180378 27.660278 10.182422 19.394455 -45.148548 9.790903 0.000000 0.000000 0.000000 0.000000 0.000000 0.000000 -14.308827 7.293271 -30.539192 17.880966 11.648261 -2.461184 -10.004094 -15.579569 -3.284020 0.000000 0.000000 0.000000 -25.504665 -1.085026 -31.280071 10.260738 17.061217 -1.117957 8.487323 -6.245518 -21.903017 0.000000 0.000000 0.000000
-44.284478 77.875978 314.670497 12.916070 2.813382 32.640741 -0.356478 -0.328041 -32.575355 -1.966160 -0.500876 0.465695 11.377584 -0.530785 -20.689182 0.000000 0.000000 0.000000 -32.164443 -32.144932 -23.071253 63.089594 29.197539 -35.105982 -5.147200 -13.256151 -3.067536 -21.400512 -21.904360 3.536960 0.000000 0.000000 0.000000 0.000000 0.000000 0.000000 23.548075 -19.876908 -3.126888 -8.624887 -15.770279 11.601408 -25.973269 32.505787 9.016770 17.272304 -48.096868 11.684390 0.000000 0.000000 0.000000 0.000000 0.000000 0.000000 -21.496731 8.649860 -30.680532 24.719364 14.850707 -2.962361 -3.214242 -7.520602 1.227019 0.000000 0.000000 0.000000 -23.284063 0.105443 -31.468777 11.112765 18.047545 -1.141680 4.432841 -7.119752 -24.116186 0.000000 0.000000 0.000000
-44.616989 78.020417 315.014361 14.578920 3.220421 29.264904 -1.024758 -0.067854 -29.269686 -2.163635 -0.416338 0.479923 13.604375 -3.122803 -23.334577 0.000000 0.000000 0.000000 -43.141127 -35.589954 -22.766145 87.132262 23.173016 -52.489760 -10.861747 -13.795412 -1.660065 -17.663479 -26.777329 4.288384 0.000000 0.000000 0.000000 0.000000 0.000000 0.000000 23.816529 -21.936637 -2.408304 -13.572944 -15.259781 12.313205 -23.060070 31.304561 4.773955 12.884932 -45.712168 12.885494 0.000000 0.000000 0.000000 0.000000 0.000000 0.000000 -30.312772 7.513264 -27.628706 30.533919 17.057249 -3.424538 4.297352 3.249345 4.647325 0.000000 0.000000 0.000000 -19.502924 -0.376034 -28.515303 9.037799 17.993093 -0.677043 1.097024 -7.306144 -25.871968 0.000000 0.000000 0.000000
-44.968745 78.266308 315.404708 15.490783 3.864257 21.994475 -1.328008 0.129970 -22.133090 -1.798530 -0.096076 0.493511 21.668951 -8.115311 -30.662138 0.000000 0.000000 0.000000 -54.798007 -39.511013 -24.779284 102.146263 17.272682 -61.764819 -13.138747 -14.897202 -1.883884 -14.673309 -28.240054 5.631138 0.000000 0.000000 0.000000 0.000000 0.000000 0.000000 23.595830 -23.914396 -1.519538 -16.889044 -15.416132 12.904136 -21.875681 30.353891 1.009299 9.514382 -40.529244 14.463688 0.000000 0.000000 0.000000 0.000000 0.000000 0.000000 -37.439374 2.503079 -22.353304 33.516404 17.530677 -3.447777 11.718261 14.227546 6.039014 0.000000 0.000000 0.000000 -13.435246 -1.784597 -21.904557 4.291504 17.177337 0.042588 -1.229283 -7.095567 -27.557743 0.000000 0.000000 0.000000
-45.178393 78.283041 315.795009 15.897864 4.139017 18.181177 -1.165277 -0.056749 -18.346993 -1.123811 -0.200277 0.602456 27.572438 -9.272918 -36.682580 0.000000 0.000000 0.000000 -62.896774 -41.405418 -26.677457 109.241813 14.769483 -65.613006 -14.217357 -17.127860 -2.379166 -16.533434 -29.423915 4.048318 0.000000 0.000000 0.000000 0.000000 0.000000 0.000000 23.081287 -25.472988 -1.024606 -20.790606 -14.294944 13.542415 -19.913097 30.167061 -1.806766 9.095085 -33.453269 15.327337 0.000000 0.000000 0.000000 0.000000 0.000000 0.000000 -41.306910 -0.101096 -19.645270 33.383038 15.080093 -2.923176 19.646651 23.647500 5.262508 0.000000 0.000000 0.000000 -3.693202 -0.809135 -18.476200 -7.119811 12.620268 0.730037 3.245221 -9.403290 -30.377291 0.000000 0.000000 0.000000
-45.415142 78.321445 316.270350 16.977733 4.513355 13.557569 -1.315236 -0.229371 -13.783329 -0.358301 -0.068774 0.713283 29.041156 -11.159393 -39.215699 0.000000 0.000000 0.000000 -66.441692 -41.202508 -23.846850 103.720421 12.683786 -62.014142 -14.852616 -14.639509 -1.426103 -14.623768 -27.571857 1.178246 0.000000 0.000000 0.000000 0.000000 0.000000 0.000000 20.534467 -27.235069 -0.429654 -20.606364 -13.523452 13.341067 -22.670185 31.357207 -3.789057 8.342125 -22.815399 17.384393 0.000000 0.000000 0.000000 0.000000 0.000000 0.000000 -43.365818 -3.045408 -16.222645 29.558193 10.699021 -1.882774 28.887838 31.477854 2.525121 0.000000 0.000000 0.000000 1.745289 0.493711 -14.249613 -14.440453 10.365453 0.559630 5.552998 -10.197885 -32.305174 0.000000 0.000000 0.000000
